<svg xmlns="http://www.w3.org/2000/svg" width="800" height="800" viewBox="0 0 256 256" xml:space="preserve">
  <path d="M239.697 73.543c-10.381-23.513-34.065-38.706-60.338-38.706-19.596 0-37.354 8.221-50.01 23.15a81 81 0 0 0-1.327 1.611c-12.571-15.636-30.997-24.46-51.599-24.46-12.822 0-25.572 3.687-35.902 10.381C17.475 60.454 6.94 86.531 13.683 111.952c4.461 16.819 13.307 32.073 26.292 45.338 18.347 18.739 37.154 37.612 55.342 55.865 7.048 7.073 14.097 14.146 21.135 21.229 1.882 1.896 5.797 5.835 11.48 5.835 5.664 0 9.544-3.896 11.41-5.77l12.561-12.605c20.006-20.078 40.012-40.156 59.992-60.26 12.723-12.799 21.152-24.979 26.533-38.324 7.459-18.5 7.875-34.763 1.269-49.717" style="fill:#000"/>
  <path d="M231.406 77.205c-16.448-37.251-67.942-45.443-95.141-13.358-2.875 3.395-5.385 7.102-8.505 11.251-1.126-1.696-2.054-3.045-2.934-4.425-18.646-29.228-55.607-32.949-79.375-17.547C26.65 65.31 16.366 86.708 22.445 109.628c4.25 16.024 12.588 29.656 24.007 41.32 25.307 25.849 50.929 51.389 76.431 77.047 4.171 4.196 5.904 4.207 10.038.057 24.188-24.278 48.386-48.551 72.546-72.858 10.26-10.321 19.055-21.678 24.555-35.322 5.667-14.063 7.72-28.319 1.384-42.667m-16.177 37.48c-2.019 5.601-12.85 3.216-10.818-2.41 2.906-8.061 4.008-17.148-.705-24.958-4.624-7.657-12.141-13.311-20.842-17.968-6-3.212-.961-9.626 5.662-7.828 14.412 3.914 21.858 11.54 26.953 23.555 4.209 9.932 3.3 19.767-.25 29.609" style="fill:#da2929"/>
</svg>
